<svg xmlns="http://www.w3.org/2000/svg" width="160" height="35" viewBox="0 0 160 35">
  <g clip-path="url(#clip0_678_9695)">
 <path d="M15.3307 0.554749H10.838C10.6195 0.554749 10.4428 0.732081 10.4428 0.951447V5.46094C10.4428 5.68031 10.6195 5.85764 10.838 5.85764H15.3307C15.5492 5.85764 15.7259 5.68031 15.7259 5.46094V0.951447C15.7259 0.732081 15.5492 0.554749 15.3307 0.554749ZM15.315 11.1618H10.8537C10.626 11.1618 10.4415 11.3471 10.4415 11.5756V24.7783C10.4415 25.0069 10.257 25.1921 10.0293 25.1921H5.56933C5.34163 25.1921 5.1571 25.3773 5.1571 25.6059V30.0799C5.1571 30.3085 5.34163 30.4937 5.56933 30.4937H15.3137C15.5414 30.4937 15.7259 30.3085 15.7259 30.0799V11.5756C15.7259 11.3471 15.5414 11.1618 15.315 11.1618ZM5.15841 11.5756C5.15841 11.3471 5.34293 11.1618 5.57064 11.1618H10.0306C10.2583 11.1618 10.4428 10.9766 10.4428 10.7481V6.27142C10.4428 6.04285 10.2583 5.85764 10.0306 5.85764H0.286253C0.0585452 5.85895 -0.125977 6.04417 -0.125977 6.27142V24.7744C-0.125977 25.003 0.0585452 25.1882 0.286253 25.1882H4.74618C4.97389 25.1882 5.15841 25.003 5.15841 24.7744V11.5756Z" fill="#0057FF"></path>
    <path d="M46.2558 10.8478C44.6252 10.8478 43.2446 11.5873 42.4921 12.4687V11.4205C42.4921 11.2773 42.377 11.1617 42.2343 11.1617H39.2375C39.0948 11.1617 38.9797 11.2773 38.9797 11.4205V24.928C38.9797 25.0711 39.0948 25.1867 39.2375 25.1867H42.2343C42.377 25.1867 42.4921 25.0711 42.4921 24.928V16.1362C42.8219 14.8292 43.95 14.0424 45.2207 14.0424C46.8827 14.0424 47.6823 15.1129 47.6823 16.7181V24.928C47.6823 25.0711 47.7974 25.1867 47.9401 25.1867H50.9369C51.0796 25.1867 51.1947 25.0711 51.1947 24.928V16.0416C51.1961 12.9416 49.4241 10.8478 46.2558 10.8478ZM64.0956 20.1032L58.6541 6.02302C58.6162 5.92319 58.5207 5.85751 58.4133 5.85751H54.5973C54.4546 5.85751 54.3395 5.97311 54.3395 6.11629V24.928C54.3395 25.0711 54.4546 25.1867 54.5973 25.1867H57.5156C57.6582 25.1867 57.7734 25.0711 57.7734 24.928V12.1548L62.7437 25.0225C62.7817 25.1224 62.8772 25.188 62.9845 25.188H65.1543C65.2616 25.188 65.3571 25.1211 65.3951 25.0212L70.2555 12.1548V24.9293C70.2555 25.0725 70.3706 25.188 70.5133 25.188H73.463C73.6056 25.188 73.7208 25.0725 73.7208 24.9293V6.1176C73.7208 5.97442 73.6056 5.85883 73.463 5.85883H69.7268C69.6208 5.85883 69.5239 5.92451 69.486 6.02434L64.0956 20.1032ZM82.676 10.8478C78.6767 10.8478 75.9324 13.8703 75.9324 18.1828C75.9324 22.4795 78.6767 25.502 82.676 25.502C86.6753 25.502 89.4195 22.4795 89.4195 18.1828C89.4195 13.8703 86.6753 10.8478 82.676 10.8478ZM82.676 22.4965C80.5743 22.4965 79.4305 20.6707 79.4305 18.1841C79.4305 15.6817 80.5756 13.8559 82.676 13.8559C84.7777 13.8559 85.9228 15.6817 85.9228 18.1841C85.9228 20.6707 84.7777 22.4965 82.676 22.4965ZM106.64 10.8478C104.711 10.8478 103.395 11.6031 102.454 12.6736C101.701 11.6188 100.352 10.8478 98.7372 10.8478C97.1695 10.8478 95.8987 11.4455 95.2248 12.3269V11.4205C95.2248 11.2773 95.1096 11.1617 94.967 11.1617H91.9701C91.8275 11.1617 91.7123 11.2773 91.7123 11.4205V24.928C91.7123 25.0711 91.8275 25.1867 91.9701 25.1867H94.967C95.1096 25.1867 95.2248 25.0711 95.2248 24.928V15.9628C95.4917 14.6716 96.4955 14.0109 97.5607 14.0109C99.0029 14.0109 99.6939 15.0814 99.6939 16.7024V24.928C99.6939 25.0711 99.809 25.1867 99.9517 25.1867H102.964C103.107 25.1867 103.222 25.0711 103.222 24.928V15.9628C103.489 14.6716 104.477 14.0109 105.542 14.0109C106.986 14.0109 107.691 15.0814 107.691 16.7024V24.928C107.691 25.0711 107.806 25.1867 107.949 25.1867H110.946C111.088 25.1867 111.204 25.0711 111.204 24.928V16.0416C111.204 12.8628 109.51 10.8478 106.64 10.8478ZM119.969 10.8478C116.111 10.8478 113.335 13.9806 113.335 18.1985C113.335 22.5268 116.048 25.502 120.032 25.502C123.341 25.502 125.426 23.7339 126.01 21.0293C126.044 20.869 125.921 20.718 125.757 20.718H123.016C122.904 20.718 122.806 20.7902 122.771 20.8966C122.393 22.0499 121.376 22.6069 120.032 22.6069C118.166 22.6069 116.865 21.2381 116.755 18.9551H125.922C126.065 18.9551 126.18 18.8396 126.18 18.6964V17.79C126.179 13.6812 123.984 10.8478 119.969 10.8478ZM116.848 16.6249C117.209 14.7517 118.384 13.76 120 13.76C121.757 13.76 122.682 15.0354 122.713 16.6249H116.848ZM135.795 10.8478C134.164 10.8478 132.783 11.5873 132.031 12.4687V11.1617H128.519V24.928C128.519 25.0711 128.634 25.1867 128.776 25.1867H131.773C131.916 25.1867 132.031 25.0711 132.031 24.928V16.1362C132.361 14.8292 133.489 14.0424 134.76 14.0424C136.422 14.0424 137.221 15.1129 137.221 16.7181V24.928C137.221 25.0711 137.336 25.1867 137.479 25.1867H140.476C140.618 25.1867 140.734 25.0711 140.734 24.928V16.0416C140.735 12.9416 138.963 10.8478 135.795 10.8478ZM149.581 22.3704C148.562 22.3704 147.951 21.8673 147.951 20.7495V14.0437H150.799C150.941 14.0437 151.056 13.9281 151.056 13.7849V11.4218C151.056 11.2786 150.941 11.163 150.799 11.163H147.951V7.64397C147.951 7.50079 147.836 7.3852 147.693 7.3852H144.712C144.569 7.3852 144.454 7.50079 144.454 7.64397V11.163H142.547C142.405 11.163 142.29 11.2786 142.29 11.4218V13.7849C142.29 13.9281 142.405 14.0437 142.547 14.0437H144.454V21.1738C144.454 24.1175 146.226 25.4862 148.892 25.4862C149.809 25.4862 150.634 25.3417 151.177 25.0895C151.267 25.0475 151.323 24.9555 151.323 24.8557V22.2903C151.323 22.1012 151.128 21.9764 150.958 22.0552C150.549 22.2456 150.043 22.3704 149.581 22.3704ZM28.2002 9.0692H30.2587V21.9764H28.2002C28.0575 21.9764 27.9424 22.092 27.9424 22.2351V24.9293C27.9424 25.0725 28.0575 25.188 28.2002 25.188H35.9566C36.0993 25.188 36.2145 25.0725 36.2145 24.9293V22.2351C36.2145 22.092 36.0993 21.9764 35.9566 21.9764H33.8981V9.0692H35.9566C36.0993 9.0692 36.2145 8.9536 36.2145 8.81042V6.1176C36.2145 5.97442 36.0993 5.85883 35.9566 5.85883H28.2002C28.0575 5.85883 27.9424 5.97442 27.9424 6.1176V8.81174C27.9424 8.9536 28.0575 9.0692 28.2002 9.0692Z" fill="#001D30"></path>
  </g>
  <defs>
    <clipPath id="clip0_678_9695">
      <rect width="160" height="35" fill="white" />
    </clipPath>
  </defs>
</svg>
